<svg id="Layer_1" data-name="Layer 1" xmlns="http://www.w3.org/2000/svg" viewBox="0 0 275.9972 275.9972"><defs><style>.cls-1{fill:#fff;}</style></defs><rect class="cls-1" x="15.9727" y="17.7542" width="235.8773" height="241.1779"/><path d="M233.2255,0H42.7718A42.7731,42.7731,0,0,0,0,42.7717V233.2226a42.7737,42.7737,0,0,0,42.7718,42.7746H233.2255a42.7736,42.7736,0,0,0,42.7717-42.7746V42.7717A42.773,42.773,0,0,0,233.2255,0ZM64.4705,153.91v27.8074a90.087,90.087,0,0,1-29.4283,66.5237,4.52,4.52,0,1,1-6.08-6.6888A81.0229,81.0229,0,0,0,55.43,181.7174V153.91H32.002a4.52,4.52,0,1,1,0-9.0407H55.43V36.4783H32.002a4.519,4.519,0,1,1,0-9.0379H90.199a21.2373,21.2373,0,0,1,21.2152,21.2153v58.2765A47.0316,47.0316,0,0,1,64.4705,153.91Zm104.8562,90.9866a4.52,4.52,0,1,1-9.0407,0V182.8208a84.9239,84.9239,0,0,0-13.8212-46.5029,93.994,93.994,0,0,1-10.77-22.5889,93.994,93.994,0,0,1-10.77,22.5889,84.9266,84.9266,0,0,0-13.824,46.5029v62.0758a4.5189,4.5189,0,1,1-9.0378,0V182.8208a93.9563,93.9563,0,0,1,15.2886-51.44,84.936,84.936,0,0,0,13.8241-46.5058V31.1176a4.5189,4.5189,0,1,1,9.0377,0V84.8751a84.9571,84.9571,0,0,0,13.8212,46.5058,93.936,93.936,0,0,1,15.2915,51.44Zm79.19-17.5978a21.2421,21.2421,0,0,1-21.2181,21.2181h-24.827a21.2421,21.2421,0,0,1-21.218-21.2181V194.02A91.9058,91.9058,0,0,1,209.55,127.69l10.8977-10.5565a4.52,4.52,0,1,1,6.2906,6.4926l-10.9147,10.5734A83.2646,83.2646,0,0,0,190.2945,194.02v33.2789a12.1916,12.1916,0,0,0,12.1774,12.1774h24.827a12.19,12.19,0,0,0,12.1774-12.1774V30.9981a4.52,4.52,0,1,1,9.0407,0Z"/><path d="M102.3764,48.6557v58.2765a37.98,37.98,0,0,1-37.9059,37.9371V36.4783H90.199A12.1916,12.1916,0,0,1,102.3764,48.6557Z"/></svg>