<svg width="74" height="63" viewBox="0 0 74 63" fill="none" xmlns="http://www.w3.org/2000/svg">
<g clip-path="url(#clip0_287:1494)">
<path d="M15.7631 15.738C13.2743 15.7328 11.1984 16.0397 9.14739 16.553C7.4741 16.9718 5.8507 17.5267 4.28925 18.2655C3.47798 18.6496 2.70715 19.1013 1.97331 19.619C1.87179 19.6901 1.77199 19.7647 1.67392 19.841C1.40034 20.0551 1.14999 20.2875 1.00804 20.6187C0.925455 20.8112 0.780923 20.9335 0.560685 20.9239C0.346469 20.9144 0.20624 20.7852 0.109025 20.6066C-0.024322 20.3612 -0.0234617 20.1011 0.0531054 19.8401C0.159783 19.4751 0.355933 19.1542 0.598539 18.8707C0.822218 18.6097 1.06654 18.3617 1.32378 18.1337C2.394 17.1868 3.58208 16.4134 4.845 15.7562C7.47324 14.3888 10.2494 13.4966 13.1891 13.1385C15.0431 12.913 16.8936 12.9104 18.7346 13.2729C19.8874 13.5 21.0007 13.8495 22.0511 14.3836C22.8039 14.7668 23.5033 15.229 24.1038 15.8325C25.1448 16.879 25.7435 18.1389 25.9294 19.6077C26.0902 20.8797 25.95 22.124 25.6343 23.3552C25.279 24.7408 24.7852 26.0778 24.2234 27.3888C23.5695 28.9158 22.8908 30.4314 22.2507 31.9635C21.7061 33.2659 21.1917 34.5812 20.6824 35.8975C20.1868 37.1781 19.8005 38.4926 19.5708 39.8504C19.1915 42.0918 19.2396 44.3202 19.7489 46.5382C20.481 49.7282 21.6803 52.7187 23.5128 55.4344C24.2027 56.4575 24.977 57.4096 25.8932 58.2394C26.6658 58.9391 27.5201 59.5122 28.4397 59.9952C28.9026 60.238 29.3568 60.499 29.805 60.7704C30.1612 60.9863 30.4632 61.2715 30.717 61.6045C31.0206 62.0025 30.9888 62.2201 30.5802 62.4932C30.0984 62.8149 29.5641 62.9771 28.9869 62.997C28.2625 63.0221 27.5657 62.8852 26.8834 62.6432C25.0828 62.0051 23.5506 60.9559 22.2344 59.5729C20.9181 58.1899 19.8935 56.6023 19.0091 54.9176C17.6558 52.3407 16.7112 49.6146 16.1245 46.761C15.567 44.0488 15.5937 41.3375 16.1365 38.6279C16.6054 36.2885 17.3891 34.061 18.5325 31.9705C19.2758 30.6109 20.0604 29.2756 20.8286 27.9299C21.5074 26.7403 22.1535 25.5324 22.6946 24.2717C22.9897 23.5833 23.24 22.8801 23.4112 22.15C23.616 21.2742 23.647 20.3968 23.4508 19.5132C23.253 18.621 22.7815 17.9143 22.0571 17.3724C21.6795 17.0897 21.2682 16.8669 20.8381 16.6796C19.8461 16.2478 18.8086 15.9877 17.7384 15.8516C16.9581 15.7527 16.1744 15.7406 15.7631 15.738Z" fill="white"/>
<path d="M47.5124 26.5498C47.4901 27.0336 47.3851 27.5261 47.1795 27.9648C46.9059 28.5475 46.6478 28.9759 46.2306 29.4527C44.239 27.8565 42.1373 26.4171 39.9658 25.0758C38.4741 24.1549 36.9488 23.2991 35.4011 22.4849C35.3417 22.8378 35.2806 23.1916 35.2204 23.5445C34.706 26.5359 34.2285 29.5317 33.9076 32.5517C33.591 35.5379 33.5359 38.5276 33.7983 41.5181C33.9893 43.691 34.3463 45.8344 35.0286 47.9128C35.2109 48.4669 35.4226 49.007 35.6772 49.5308C35.9577 50.1091 36.3147 50.6276 36.7647 51.0872C37.0055 51.3325 37.2232 51.6031 37.4323 51.8771C37.6267 52.1311 37.7695 52.4181 37.8426 52.7329C37.8762 52.8803 37.8985 53.032 37.9071 53.1837C37.9278 53.5601 37.7686 53.854 37.4692 54.0734C37.1957 54.2737 36.8877 54.3838 36.5522 54.4193C36.1633 54.4609 35.7839 54.4141 35.4131 54.291C34.8935 54.1185 34.4453 53.8297 34.0573 53.4439C33.5755 52.9635 33.1686 52.4242 32.8288 51.8337C32.3719 51.0395 32.0106 50.2019 31.7087 49.3365C31.1675 47.7888 30.8191 46.1925 30.5576 44.5763C30.1988 42.3687 30.0534 40.1438 30.0457 37.9085C30.0095 35.4503 30.2126 33.0078 30.5128 30.5704C30.918 27.292 31.4695 24.037 32.045 20.7855C32.0562 20.7213 32.0683 20.6563 32.0794 20.5921C32.2601 19.5724 32.4313 18.551 32.5672 17.5244C32.6378 16.9989 32.6989 16.4718 32.747 15.9437C32.9363 13.8792 32.92 11.819 32.63 9.76319C32.2438 7.02236 30.8879 4.89976 28.6064 3.37111C27.9182 2.90982 27.1921 2.5153 26.4341 2.18148C26.1821 2.07049 25.93 1.95864 25.6857 1.83118C25.5403 1.75575 25.3957 1.66557 25.2779 1.55372C24.8434 1.14186 24.9252 0.482879 25.4396 0.176801C25.6203 0.0684164 25.8199 0.0215943 26.0289 0.00772112C26.4866 -0.0217595 26.9357 0.0346005 27.377 0.152523C28.9393 0.570453 30.3709 1.25718 31.6286 2.28813C33.9162 4.16448 35.3908 6.56021 36.0867 9.44497C36.3741 10.6381 36.4618 11.8528 36.4704 13.0754C36.4825 14.7281 36.3732 16.3746 36.1263 18.0065C36.0721 18.3646 36.0171 18.7218 35.9603 19.0799C36.3844 19.2863 36.8051 19.4979 37.2223 19.7181C40.6928 21.5468 44.3104 23.7673 47.2922 26.3417C47.3335 26.3772 47.4711 26.5125 47.5124 26.5498Z" fill="white"/>
<path d="M55.3126 23.8421C55.3376 26.1112 55.0898 27.6945 54.6786 29.2553C54.3001 30.6911 53.7994 32.0854 53.2668 33.4675C52.7489 34.8115 52.2155 36.1485 51.6968 37.4916C50.9019 39.5492 50.2549 41.6518 49.8136 43.8161C49.4686 45.5077 49.3043 47.2133 49.4419 48.9405C49.4987 49.6463 49.5976 50.3451 49.7809 51.0301C49.9538 51.677 50.2102 52.2865 50.5827 52.8449C51.2744 53.8811 52.2439 54.4351 53.4742 54.5288C54.2355 54.5869 54.9849 54.5002 55.7247 54.319C56.4362 54.1447 57.1159 53.8828 57.78 53.5759C58.8459 53.0834 59.8525 52.4851 60.822 51.8244C63.212 50.1943 65.3997 48.3223 67.3974 46.2257C68.4091 45.1635 69.3176 44.0164 70.1366 42.7964C70.4291 42.3611 70.7534 41.9466 71.0829 41.5391C71.3617 41.194 71.6937 40.8984 72.0809 40.6781C72.2951 40.5567 72.5205 40.4449 72.7528 40.3668C73.17 40.2255 73.4754 40.3573 73.6845 40.7501C73.7619 40.8958 73.8204 41.0536 73.8677 41.2122C74.0312 41.755 74.0355 42.3039 73.9168 42.8562C73.7722 43.5273 73.5073 44.1482 73.1416 44.7265C72.6685 45.4756 72.148 46.1901 71.5922 46.8794C70.1736 48.6379 68.5855 50.229 66.8846 51.7073C65.6337 52.7955 64.3338 53.8204 62.9573 54.7412C61.7417 55.5545 60.4874 56.3028 59.1539 56.908C57.8789 57.4864 56.5558 57.8974 55.1655 58.0699C54.1203 58.2 53.0793 58.1844 52.0469 57.9494C50.5225 57.6017 49.2441 56.8335 48.2057 55.6586C47.329 54.6666 46.7492 53.5134 46.3784 52.2475C46.0291 51.0579 45.8725 49.8362 45.8123 48.5997C45.7177 46.6488 45.931 44.7248 46.3354 42.8189C46.7844 40.6998 47.4039 38.6318 48.1747 36.6098C48.5988 35.4973 49.0496 34.3953 49.4875 33.288C50.1035 31.7299 50.6885 30.1596 51.1367 28.5425C51.6262 26.778 51.8594 24.9866 51.6598 23.1545C51.5935 22.5484 51.5067 21.9449 51.412 21.3423C51.1083 19.407 50.6507 17.5124 49.9684 15.6742C49.4703 14.3311 48.8543 13.0513 48.0895 11.8426C48.0155 11.7256 47.9381 11.6103 47.8796 11.4854C47.6146 10.914 47.9613 10.3331 48.5876 10.2923C48.8578 10.275 49.1038 10.3591 49.3395 10.4805C49.6733 10.6521 49.9745 10.8741 50.2317 11.1455C50.5259 11.4551 50.8133 11.7741 51.0774 12.1106C51.6168 12.7964 52.0762 13.5369 52.4934 14.3043C53.4492 16.0627 54.1719 17.9182 54.7147 19.844C55.1423 21.3631 55.2989 22.9195 55.3126 23.8421Z" fill="white"/>
</g>
<defs>
<clipPath id="clip0_287:1494">
<rect width="74" height="63" fill="white"/>
</clipPath>
</defs>
</svg>
